<?xml version="1.0" encoding="UTF-8"?>
<svg xmlns="http://www.w3.org/2000/svg" viewBox="0 0 94.32 204.48">
  <defs>
    <style>
      .cls-1 {
        fill: #f6c6c5;
      }

      .cls-2 {
        fill: none;
        stroke: #dd9997;
        stroke-linecap: round;
        stroke-linejoin: round;
      }
    </style>
  </defs>
  <g id="Layer_4" data-name="Layer 4">
    <path class="cls-1" d="M85.53,73.89c-.18-1.31-.73-2.56-1.71-3.48-.65-.62-1.36-.99-2.2-1.3-.49-.18.25.15.34.16-.44-.07-.99-.45-1.42-.63-.26-.11-.58-.15-.9-.16-.85-1.58-2.02-2.92-3.92-3.41-1.24-.32-2.35-.28-3.6-.06-.4.07-.79.18-1.18.28-.18.05-1.4.25-.84.22-1.19.06-2.34.64-3.11,1.53-1.88-1.54-4.05-2.75-6.46-3.24-3.5-.71-6.12,1.02-9.07,2.47-.4.19-.71.43-.98.69-1.63-1.1-3.3-2.4-5.25-2.82-2.39-.51-4.68.13-7.04.5-.69.11-1.27.48-1.74.98-.98.1-1.89.42-2.61,1.14-.19.19-.37.42-.52.67-.94-.19-1.89-.33-2.84-.43-.07-.02-.13-.04-.2-.07-1.14-.46-2.1-.73-3.36-.79-.33-.02-.66.04-.99.12-.07-.01-.13-.03-.21-.04-2-.22-3.86.85-5.28,2.17-1.15,1.06-2.43,2.34-2.81,3.9-.49,1.98-.27,4.23,1.3,5.69.75.7,1.63,1.16,2.56,1.45.67,2.27,2.12,4.45,4.25,5.4,2.78,1.23,5.55.97,8.48.57.46-.06.87-.25,1.24-.5.41.08.82.1,1.23.01.36-.02.7-.12,1.02-.26,4.24,3.84,11.31,4.16,15.94.74.09-.07.17-.15.26-.23,2.8.66,4.94,2.41,7.98,2.3,3.17-.12,5.08-1.41,7.64-3.06.46-.3.82-.64,1.1-1.02,1.38.54,2.76,1.07,4.26,1.16,2.04.12,3.69-.47,5.4-1.51,1.46-.89,1.98-2.25,1.87-3.57.41-.26.81-.53,1.2-.82,1.61-1.22,2.43-2.71,2.16-4.76Z"/>
  </g>
  <g id="Layer_3" data-name="Layer 3">
    <path class="cls-2" d="M21.34,79.25c-.74.5-7.02-3.1-1.83-9.58,5.29-6.61,13.32-2.21,13.32-2.21,0,0,4.22-3.5,9.33-3.56,5.11-.06,8.22,3.22,8.22,3.22,0,0,3.11-3.56,8.33-3.78,5.22-.22,8.06,3.89,8.06,3.89,0,0,2.94-2.94,7.39-2.61,4.44.33,5.4,3.82,5.4,3.82,0,0,4.96.14,6.01,4.69,1.06,4.56-3.18,6.42-3.18,6.42,0,0,.68,2.74-3.71,4.4-4.39,1.67-7.97-.72-7.97-.72,0,0-2.67,3.94-7.22,4.17-4.56.22-9.56-2.28-9.56-2.28,0,0-4.04,3.22-8.59,2.83s-8.35-3.25-8.35-3.25c0,0-5.42,2.22-9.86.67s-5.79-6.12-5.79-6.12Z"/>
    <path class="cls-2" d="M25.41,76.3s1.17,1.83,3.44,2,3.83-1.33,3.83-1.33c0,0,.78,1.39,3.72,1.61s3.89-.78,3.89-.78"/>
    <path class="cls-2" d="M46.41,81.41s.83,1.17,3.11,1,2.88-1.72,2.88-1.72c0,0,.73.78,2.73.33s2.39-1.33,2.39-1.33"/>
    <path class="cls-2" d="M65.08,76.3s.5,2.06,2.83,1.78,2.78-1.1,2.78-1.1c0,0,.89,1.15,2.56.82s2.72-1.22,2.72-1.22"/>
  </g>
</svg>