<?xml version="1.0" encoding="UTF-8" standalone="no"?>
<svg width="16.6687mm" height="18.7854mm"
 xmlns="http://www.w3.org/2000/svg" xmlns:xlink="http://www.w3.org/1999/xlink"  version="1.2" baseProfile="tiny">
<desc>Created by EvoPdf</desc>
<defs>
</defs>
<g fill="none" stroke="black" stroke-width="1" fill-rule="evenodd" stroke-linecap="square" stroke-linejoin="bevel" >

<g fill="#000000" fill-opacity="1" stroke="#000000" stroke-opacity="1" stroke-width="1" stroke-linecap="square" stroke-linejoin="miter" stroke-miterlimit="2" transform="matrix(1,0,0,1,0,0)"
>
</g>

<g fill="#000000" fill-opacity="1" stroke="#000000" stroke-opacity="1" stroke-width="1" stroke-linecap="square" stroke-linejoin="miter" stroke-miterlimit="2" transform="matrix(1,0,0,1,0,0)"
>
</g>

<g fill="#000000" fill-opacity="1" stroke="#000000" stroke-opacity="1" stroke-width="1" stroke-linecap="square" stroke-linejoin="miter" stroke-miterlimit="2" transform="matrix(1,0,0,1,0,0)"
>
</g>

<g fill="#000000" fill-opacity="1" stroke="#000000" stroke-opacity="1" stroke-width="1" stroke-linecap="square" stroke-linejoin="miter" stroke-miterlimit="2" transform="matrix(1,0,0,1,0,0)"
>
</g>

<g fill="#000000" fill-opacity="1" stroke="#000000" stroke-opacity="1" stroke-width="1" stroke-linecap="square" stroke-linejoin="miter" stroke-miterlimit="2" transform="matrix(1,0,0,1,8,8)"
>
</g>

<g fill="#ce7b7b" fill-opacity="1" stroke="none" transform="matrix(1,0,0,1,8,8)"
>
<path vector-effect="none" fill-rule="nonzero" d="M15.95,0 L39.05,0 C47.85,0 55,7.15 55,15.95 L55,39.05 C55,43.2802 53.3196,47.3372 50.3284,50.3284 C47.3372,53.3196 43.2802,55 39.05,55 L15.95,55 C7.15,55 0,47.85 0,39.05 L0,15.95 C0,11.7198 1.68044,7.66285 4.67165,4.67165 C7.66285,1.68044 11.7198,0 15.95,0 M15.4,5.5 C12.7744,5.5 10.2563,6.54303 8.39964,8.39964 C6.54303,10.2563 5.5,12.7744 5.5,15.4 L5.5,39.6 C5.5,45.0725 9.9275,49.5 15.4,49.5 L39.6,49.5 C42.2256,49.5 44.7438,48.457 46.6004,46.6004 C48.457,44.7438 49.5,42.2256 49.5,39.6 L49.5,15.4 C49.5,9.9275 45.0725,5.5 39.6,5.5 L15.4,5.5 M41.9375,9.625 C42.8492,9.625 43.7235,9.98716 44.3682,10.6318 C45.0128,11.2765 45.375,12.1508 45.375,13.0625 C45.375,13.9742 45.0128,14.8485 44.3682,15.4932 C43.7235,16.1378 42.8492,16.5 41.9375,16.5 C41.0258,16.5 40.1515,16.1378 39.5068,15.4932 C38.8622,14.8485 38.5,13.9742 38.5,13.0625 C38.5,12.1508 38.8622,11.2765 39.5068,10.6318 C40.1515,9.98716 41.0258,9.625 41.9375,9.625 M27.5,13.75 C31.1467,13.75 34.6441,15.1987 37.2227,17.7773 C39.8013,20.3559 41.25,23.8533 41.25,27.5 C41.25,31.1467 39.8013,34.6441 37.2227,37.2227 C34.6441,39.8013 31.1467,41.25 27.5,41.25 C23.8533,41.25 20.3559,39.8013 17.7773,37.2227 C15.1987,34.6441 13.75,31.1467 13.75,27.5 C13.75,23.8533 15.1987,20.3559 17.7773,17.7773 C20.3559,15.1987 23.8533,13.75 27.5,13.75 M27.5,19.25 C25.312,19.25 23.2135,20.1192 21.6664,21.6664 C20.1192,23.2135 19.25,25.312 19.25,27.5 C19.25,29.688 20.1192,31.7865 21.6664,33.3336 C23.2135,34.8808 25.312,35.75 27.5,35.75 C29.688,35.75 31.7865,34.8808 33.3336,33.3336 C34.8808,31.7865 35.75,29.688 35.75,27.5 C35.75,25.312 34.8808,23.2135 33.3336,21.6664 C31.7865,20.1192 29.688,19.25 27.5,19.25 "/>
</g>

<g fill="#000000" fill-opacity="1" stroke="#000000" stroke-opacity="1" stroke-width="1" stroke-linecap="square" stroke-linejoin="miter" stroke-miterlimit="2" transform="matrix(1,0,0,1,8,8)"
>
</g>

<g fill="#000000" fill-opacity="1" stroke="#000000" stroke-opacity="1" stroke-width="1" stroke-linecap="square" stroke-linejoin="miter" stroke-miterlimit="2" transform="matrix(1,0,0,1,8,8)"
>
</g>

<g fill="#000000" fill-opacity="1" stroke="#000000" stroke-opacity="1" stroke-width="1" stroke-linecap="square" stroke-linejoin="miter" stroke-miterlimit="2" transform="matrix(1,0,0,1,0,0)"
>
</g>

<g fill="#000000" fill-opacity="1" stroke="#000000" stroke-opacity="1" stroke-width="1" stroke-linecap="square" stroke-linejoin="miter" stroke-miterlimit="2" transform="matrix(1,0,0,1,0,0)"
>
</g>

<g fill="#000000" fill-opacity="1" stroke="#000000" stroke-opacity="1" stroke-width="1" stroke-linecap="square" stroke-linejoin="miter" stroke-miterlimit="2" transform="matrix(1,0,0,1,0,0)"
>
</g>

<g fill="#000000" fill-opacity="1" stroke="#000000" stroke-opacity="1" stroke-width="1" stroke-linecap="square" stroke-linejoin="miter" stroke-miterlimit="2" transform="matrix(1,0,0,1,0,0)"
>
</g>

<g fill="#000000" fill-opacity="1" stroke="#000000" stroke-opacity="1" stroke-width="1" stroke-linecap="square" stroke-linejoin="miter" stroke-miterlimit="2" transform="matrix(1,0,0,1,8,8)"
>
</g>

<g fill="#000000" fill-opacity="1" stroke="#000000" stroke-opacity="1" stroke-width="1" stroke-linecap="square" stroke-linejoin="miter" stroke-miterlimit="2" transform="matrix(1,0,0,1,0,0)"
>
</g>

<g fill="#000000" fill-opacity="1" stroke="#000000" stroke-opacity="1" stroke-width="1" stroke-linecap="square" stroke-linejoin="miter" stroke-miterlimit="2" transform="matrix(1,0,0,1,0,0)"
>
</g>

<g fill="#000000" fill-opacity="1" stroke="#000000" stroke-opacity="1" stroke-width="1" stroke-linecap="square" stroke-linejoin="miter" stroke-miterlimit="2" transform="matrix(1,0,0,1,0,0)"
>
</g>

<g fill="#000000" fill-opacity="1" stroke="#000000" stroke-opacity="1" stroke-width="1" stroke-linecap="square" stroke-linejoin="miter" stroke-miterlimit="2" transform="matrix(1,0,0,1,0,0)"
>
</g>

<g fill="#000000" fill-opacity="1" stroke="#000000" stroke-opacity="1" stroke-width="1" stroke-linecap="square" stroke-linejoin="miter" stroke-miterlimit="2" transform="matrix(1,0,0,1,0,0)"
>
</g>

<g fill="#000000" fill-opacity="1" stroke="#000000" stroke-opacity="1" stroke-width="1" stroke-linecap="square" stroke-linejoin="miter" stroke-miterlimit="2" transform="matrix(1,0,0,1,0,0)"
>
</g>
</g>
</svg>
