<?xml version="1.0" encoding="UTF-8" standalone="no"?>
<svg width="12.1708mm" height="14.2875mm"
 xmlns="http://www.w3.org/2000/svg" xmlns:xlink="http://www.w3.org/1999/xlink"  version="1.2" baseProfile="tiny">
<desc>Created by EvoPdf</desc>
<defs>
</defs>
<g fill="none" stroke="black" stroke-width="1" fill-rule="evenodd" stroke-linecap="square" stroke-linejoin="bevel" >

<g fill="#000000" fill-opacity="1" stroke="#000000" stroke-opacity="1" stroke-width="1" stroke-linecap="square" stroke-linejoin="miter" stroke-miterlimit="2" transform="matrix(1,0,0,1,0,0)"
>
</g>

<g fill="#000000" fill-opacity="1" stroke="#000000" stroke-opacity="1" stroke-width="1" stroke-linecap="square" stroke-linejoin="miter" stroke-miterlimit="2" transform="matrix(1,0,0,1,0,0)"
>
</g>

<g fill="#000000" fill-opacity="1" stroke="#000000" stroke-opacity="1" stroke-width="1" stroke-linecap="square" stroke-linejoin="miter" stroke-miterlimit="2" transform="matrix(1,0,0,1,0,0)"
>
</g>

<g fill="#000000" fill-opacity="1" stroke="#000000" stroke-opacity="1" stroke-width="1" stroke-linecap="square" stroke-linejoin="miter" stroke-miterlimit="2" transform="matrix(1,0,0,1,0,0)"
>
</g>

<g fill="#000000" fill-opacity="1" stroke="#000000" stroke-opacity="1" stroke-width="1" stroke-linecap="square" stroke-linejoin="miter" stroke-miterlimit="2" transform="matrix(1,0,0,1,8,8)"
>
</g>

<g fill="#702929" fill-opacity="1" stroke="none" transform="matrix(1,0,0,1,8,8)"
>
<path vector-effect="none" fill-rule="nonzero" d="M14.0537,0.5 C17.7305,0.5 20.8459,1.72933 23.4268,4.19336 L23.6748,4.43555 C26.3031,7.06102 27.6126,10.2572 27.6084,14.0537 L27.5967,14.624 C27.5511,15.7554 27.3687,16.8343 27.0508,17.8623 L26.8809,18.3721 C26.3936,19.7294 25.7349,20.9234 24.9072,21.958 L24.627,22.3076 L24.9434,22.624 L37.0518,34.7314 C37.3452,35.0249 37.4999,35.3982 37.5,35.8916 C37.5,36.3852 37.3452,36.7583 37.0518,37.0518 C36.7583,37.3452 36.3852,37.5 35.8916,37.5 C35.4598,37.4999 35.1204,37.3815 34.8457,37.1553 L34.7324,37.0518 L34.7314,37.0518 L22.624,24.9434 L22.3076,24.627 L21.958,24.9072 C21.0526,25.6315 20.0252,26.2266 18.873,26.6904 L18.3721,26.8809 C17.0241,27.3647 15.5853,27.6084 14.0537,27.6084 C10.3743,27.6083 7.26018,26.3786 4.68359,23.915 L4.43555,23.6729 C1.81134,21.0473 0.501394,17.8507 0.5,14.0537 L0.503906,13.6992 C0.579549,10.1751 1.80781,7.17839 4.19336,4.68359 L4.43555,4.43555 C7.06254,1.80999 10.2585,0.500079 14.0537,0.5 M14.0547,3.82422 C11.3952,3.82138 9.09754,4.69836 7.18652,6.44824 L6.80859,6.81055 C4.82646,8.80039 3.82875,11.2247 3.82422,14.0537 C3.82007,16.707 4.69769,19.0042 6.44824,20.9219 L6.80957,21.3008 C8.80076,23.292 11.2252,24.2889 14.0537,24.2832 C16.8874,24.2832 19.3133,23.2867 21.3008,21.3008 C23.2883,19.3147 24.2857,16.889 24.2842,14.0537 L24.2715,13.5273 C24.1614,11.0916 23.2899,8.97124 21.6611,7.18652 L21.3008,6.80957 C19.3161,4.82493 16.8908,3.82726 14.0547,3.82422 "/>
</g>

<g fill="none" stroke="#702929" stroke-opacity="1" stroke-width="1" stroke-linecap="butt" stroke-linejoin="miter" stroke-miterlimit="4" transform="matrix(1,0,0,1,8,8)"
>
<path vector-effect="none" fill-rule="nonzero" d="M14.0537,0.5 C17.7305,0.5 20.8459,1.72933 23.4268,4.19336 L23.6748,4.43555 C26.3031,7.06102 27.6126,10.2572 27.6084,14.0537 L27.5967,14.624 C27.5511,15.7554 27.3687,16.8343 27.0508,17.8623 L26.8809,18.3721 C26.3936,19.7294 25.7349,20.9234 24.9072,21.958 L24.627,22.3076 L24.9434,22.624 L37.0518,34.7314 C37.3452,35.0249 37.4999,35.3982 37.5,35.8916 C37.5,36.3852 37.3452,36.7583 37.0518,37.0518 C36.7583,37.3452 36.3852,37.5 35.8916,37.5 C35.4598,37.4999 35.1204,37.3815 34.8457,37.1553 L34.7324,37.0518 L34.7314,37.0518 L22.624,24.9434 L22.3076,24.627 L21.958,24.9072 C21.0526,25.6315 20.0252,26.2266 18.873,26.6904 L18.3721,26.8809 C17.0241,27.3647 15.5853,27.6084 14.0537,27.6084 C10.3743,27.6083 7.26018,26.3786 4.68359,23.915 L4.43555,23.6729 C1.81134,21.0473 0.501394,17.8507 0.5,14.0537 L0.503906,13.6992 C0.579549,10.1751 1.80781,7.17839 4.19336,4.68359 L4.43555,4.43555 C7.06254,1.80999 10.2585,0.500079 14.0537,0.5 M14.0547,3.82422 C11.3952,3.82138 9.09754,4.69836 7.18652,6.44824 L6.80859,6.81055 C4.82646,8.80039 3.82875,11.2247 3.82422,14.0537 C3.82007,16.707 4.69769,19.0042 6.44824,20.9219 L6.80957,21.3008 C8.80076,23.292 11.2252,24.2889 14.0537,24.2832 C16.8874,24.2832 19.3133,23.2867 21.3008,21.3008 C23.2883,19.3147 24.2857,16.889 24.2842,14.0537 L24.2715,13.5273 C24.1614,11.0916 23.2899,8.97124 21.6611,7.18652 L21.3008,6.80957 C19.3161,4.82493 16.8908,3.82726 14.0547,3.82422 "/>
</g>

<g fill="#000000" fill-opacity="1" stroke="#000000" stroke-opacity="1" stroke-width="1" stroke-linecap="square" stroke-linejoin="miter" stroke-miterlimit="2" transform="matrix(1,0,0,1,8,8)"
>
</g>

<g fill="#000000" fill-opacity="1" stroke="#000000" stroke-opacity="1" stroke-width="1" stroke-linecap="square" stroke-linejoin="miter" stroke-miterlimit="2" transform="matrix(1,0,0,1,8,8)"
>
</g>

<g fill="#000000" fill-opacity="1" stroke="#000000" stroke-opacity="1" stroke-width="1" stroke-linecap="square" stroke-linejoin="miter" stroke-miterlimit="2" transform="matrix(1,0,0,1,0,0)"
>
</g>

<g fill="#000000" fill-opacity="1" stroke="#000000" stroke-opacity="1" stroke-width="1" stroke-linecap="square" stroke-linejoin="miter" stroke-miterlimit="2" transform="matrix(1,0,0,1,0,0)"
>
</g>

<g fill="#000000" fill-opacity="1" stroke="#000000" stroke-opacity="1" stroke-width="1" stroke-linecap="square" stroke-linejoin="miter" stroke-miterlimit="2" transform="matrix(1,0,0,1,0,0)"
>
</g>

<g fill="#000000" fill-opacity="1" stroke="#000000" stroke-opacity="1" stroke-width="1" stroke-linecap="square" stroke-linejoin="miter" stroke-miterlimit="2" transform="matrix(1,0,0,1,0,0)"
>
</g>

<g fill="#000000" fill-opacity="1" stroke="#000000" stroke-opacity="1" stroke-width="1" stroke-linecap="square" stroke-linejoin="miter" stroke-miterlimit="2" transform="matrix(1,0,0,1,8,8)"
>
</g>

<g fill="#000000" fill-opacity="1" stroke="#000000" stroke-opacity="1" stroke-width="1" stroke-linecap="square" stroke-linejoin="miter" stroke-miterlimit="2" transform="matrix(1,0,0,1,0,0)"
>
</g>

<g fill="#000000" fill-opacity="1" stroke="#000000" stroke-opacity="1" stroke-width="1" stroke-linecap="square" stroke-linejoin="miter" stroke-miterlimit="2" transform="matrix(1,0,0,1,0,0)"
>
</g>

<g fill="#000000" fill-opacity="1" stroke="#000000" stroke-opacity="1" stroke-width="1" stroke-linecap="square" stroke-linejoin="miter" stroke-miterlimit="2" transform="matrix(1,0,0,1,0,0)"
>
</g>

<g fill="#000000" fill-opacity="1" stroke="#000000" stroke-opacity="1" stroke-width="1" stroke-linecap="square" stroke-linejoin="miter" stroke-miterlimit="2" transform="matrix(1,0,0,1,0,0)"
>
</g>

<g fill="#000000" fill-opacity="1" stroke="#000000" stroke-opacity="1" stroke-width="1" stroke-linecap="square" stroke-linejoin="miter" stroke-miterlimit="2" transform="matrix(1,0,0,1,0,0)"
>
</g>

<g fill="#000000" fill-opacity="1" stroke="#000000" stroke-opacity="1" stroke-width="1" stroke-linecap="square" stroke-linejoin="miter" stroke-miterlimit="2" transform="matrix(1,0,0,1,0,0)"
>
</g>
</g>
</svg>
