<?xml version="1.0" encoding="UTF-8"?>
<svg xmlns="http://www.w3.org/2000/svg" viewBox="0 0 94.32 204.48">
  <defs>
    <style>
      .cls-1 {
        fill: #f6c6c5;
      }

      .cls-2 {
        fill: none;
        stroke: #dd9997;
        stroke-linecap: round;
        stroke-linejoin: round;
      }
    </style>
  </defs>
  <g id="Layer_4" data-name="Layer 4">
    <g>
      <path class="cls-1" d="M66.89,129.06c.06.06.07.06,0,0h0Z"/>
      <path class="cls-1" d="M70.67,135.92c-.05-.35-.1-.71-.14-1.06-.01-.04-.02-.09-.03-.13-.11-.33-.29-.7-.43-1.02-.02-.05-.04-.1-.07-.15-.04-.09-.09-.17-.14-.25-.25-.47-.59-.84-1.03-1.12-.03-.03-.06-.04-.09-.07-.2-.54-.52-1.03-.94-1.42-.29-.87-.88-1.64-1.73-2.22.48.33.72.51.82.58-.09-.08-.26-.25-.43-.48-.32-.46-.7-.96-1.1-1.37-.86-.89-1.99-1.51-3.17-1.87-1.57-.47-3.16-.18-4.59.49-.16-.27-.34-.53-.56-.78-.54-.59-1.18-.95-1.93-1.21-.49-.17-.63-.13-.08.09-1.22-.48-2.07-.93-3.44-.99-.97-.05-1.99.03-2.91.3-.71.2-1.23.52-1.79.95-.18.13-.35.27-.51.42-.7.36-1.3.92-1.71,1.6-.92-1.58-2.61-2.17-4.51-1.89.99-.15-.04-.1-.23-.1-.27,0-.53,0-.8.02-1.09.09-2.05.35-2.99.91-.55.33-1.14.75-1.66,1.22-.72-.29-1.51-.36-2.29-.08-1.31-.11-2.56.11-3.72.87-1.7,1.11-2.4,2.86-2.59,4.81-.09.95,0,1.89.24,2.78-.21.22-.4.46-.58.71-.11.09-.23.17-.34.27-1.43,1.25-2.17,2.88-1.76,4.81.3,1.39,1.35,2.68,2.56,3.4,1.79,1.07,4.25,1.04,6.26.33.62,3.09,3.41,5.05,6.57,5.18,1.51.06,3.14-.16,4.58-.56.83-.23,1.47-.68,2.04-1.21.35-.18.68-.4.99-.64.2-.13.42-.24.62-.36.13.15.27.31.42.45,1.49,1.39,3.6,1.82,5.58,1.67,3.36-.25,5.56-1.93,7.07-4.45.27.15.55.27.86.35,1.68.44,3.72.38,5.24-.51.97-.56,1.7-1.39,2.14-2.42.26-.62.37-1.14.46-1.73-.01.1-.03.19-.04.29.05-.34.12-.68.2-1.01.17-.13.3-.21.44-.35.12-.14.23-.28.33-.43.13-.14.24-.29.34-.45.13-.32.27-.64.4-.96,0-.02.01-.03.02-.05,0-.02,0-.04.01-.05.05-.35.1-.71.14-1.06,0-.02,0-.04,0-.07Z"/>
    </g>
  </g>
  <g id="Layer_3" data-name="Layer 3">
    <path class="cls-2" d="M33.94,126.49s-4.06-.97-6.39,1.31c-2.33,2.28-1.56,7.25-1.56,7.25,0,0-4.33,2.31-2.11,6.81s8.44,2.42,8.44,2.42c0,0,.26,4.95,6.6,5.18,6.33.22,8.23-2.95,8.23-2.95,0,0,1.95,2.82,6.89,1.93,4.94-.89,5.72-4.1,5.72-4.1,0,0,2.72,1.75,6.11.36s2.7-4.62,2.7-4.62c0,0,2.48-1.63,2.42-4.36-.06-2.72-3.21-4.39-3.21-4.39,0,0-.49-3.19-3.38-5.14-2.89-1.94-7.03-.42-7.03-.42,0,0-1.55-3.33-6.33-3.07-5.06.28-6.17,3.07-6.17,3.07,0,0-2.17-2.19-5.89-1.72s-5.06,2.44-5.06,2.44Z"/>
    <path class="cls-2" d="M29.51,137.02s-.17,1.58,1.06,2.36,3.97.22,3.97.22"/>
    <path class="cls-2" d="M38.12,142.49s.61,1.53,2.97,1.47,3.56-1.08,3.56-1.08"/>
    <path class="cls-2" d="M53.08,140.91s.15.83,2.65.92,4.11-2.78,4.11-2.78c0,0,2.63-.14,3.82-1.53s.69-3.83.69-3.83"/>
  </g>
</svg>