<?xml version="1.0" encoding="UTF-8" standalone="no"?>
<svg width="12.7mm" height="15.875mm"
 xmlns="http://www.w3.org/2000/svg" xmlns:xlink="http://www.w3.org/1999/xlink"  version="1.2" baseProfile="tiny">
<desc>Created by EvoPdf</desc>
<defs>
</defs>
<g fill="none" stroke="black" stroke-width="1" fill-rule="evenodd" stroke-linecap="square" stroke-linejoin="bevel" >

<g fill="#000000" fill-opacity="1" stroke="#000000" stroke-opacity="1" stroke-width="1" stroke-linecap="square" stroke-linejoin="miter" stroke-miterlimit="2" transform="matrix(1,0,0,1,0,0)"
>
</g>

<g fill="#000000" fill-opacity="1" stroke="#000000" stroke-opacity="1" stroke-width="1" stroke-linecap="square" stroke-linejoin="miter" stroke-miterlimit="2" transform="matrix(1,0,0,1,0,0)"
>
</g>

<g fill="#000000" fill-opacity="1" stroke="#000000" stroke-opacity="1" stroke-width="1" stroke-linecap="square" stroke-linejoin="miter" stroke-miterlimit="2" transform="matrix(1,0,0,1,0,0)"
>
</g>

<g fill="#000000" fill-opacity="1" stroke="#000000" stroke-opacity="1" stroke-width="1" stroke-linecap="square" stroke-linejoin="miter" stroke-miterlimit="2" transform="matrix(1,0,0,1,0,0)"
>
</g>

<g fill="#000000" fill-opacity="1" stroke="#000000" stroke-opacity="1" stroke-width="1" stroke-linecap="square" stroke-linejoin="miter" stroke-miterlimit="2" transform="matrix(1,0,0,1,8,8)"
>
</g>

<g fill="#702929" fill-opacity="1" stroke="none" transform="matrix(1,0,0,1,8,8)"
>
<path vector-effect="none" fill-rule="evenodd" d="M22.8946,4.55172 L16.7886,4.55172 C16.3837,4.55172 15.9955,4.71158 15.7092,4.99611 C15.4229,5.28065 15.2621,5.66657 15.2621,6.06897 L15.2621,7.58621 L24.4211,7.58621 L24.4211,6.06897 C24.4211,5.66657 24.2603,5.28065 23.974,4.99611 C23.6878,4.71158 23.2995,4.55172 22.8946,4.55172 M29.0007,7.58621 L29.0007,6.06897 C29.0007,4.45938 28.3574,2.91571 27.2123,1.77756 C26.0672,0.639407 24.5141,0 22.8946,0 L16.7886,0 C15.1692,0 13.6161,0.639407 12.471,1.77756 C11.3258,2.91571 10.6825,4.45938 10.6825,6.06897 L10.6825,7.58621 L2.28977,7.58621 C1.68248,7.58621 1.10007,7.82598 0.670658,8.25279 C0.241243,8.6796 0,9.25847 0,9.86207 C0,10.4657 0.241243,11.0445 0.670658,11.4713 C1.10007,11.8982 1.68248,12.1379 2.28977,12.1379 L3.24231,12.1379 L4.21012,35.2759 C4.3086,37.6229 5.31604,39.8412 7.02183,41.467 C8.72762,43.0929 10.9997,44.0005 13.3631,44 L26.3232,44 C28.686,43.9997 30.9574,43.0918 32.6625,41.466 C34.3676,39.8402 35.3746,37.6223 35.4731,35.2759 L36.444,12.1379 L37.3965,12.1379 C38.0038,12.1379 38.5862,11.8982 39.0156,11.4713 C39.445,11.0445 39.6863,10.4657 39.6863,9.86207 C39.6863,9.25847 39.445,8.6796 39.0156,8.25279 C38.5862,7.82598 38.0038,7.58621 37.3965,7.58621 L29.0007,7.58621 M31.8583,12.1379 L7.8249,12.1379 L8.78661,35.0847 C8.83546,36.2585 9.33901,37.368 10.1919,38.1812 C11.0449,38.9945 12.1811,39.4485 13.3631,39.4483 L26.3232,39.4483 C27.5046,39.4477 28.6401,38.9934 29.4924,38.1802 C30.3447,37.367 30.8478,36.2579 30.8966,35.0847 L31.8583,12.1379 M12.9723,18.2069 L12.9723,33.3793 C12.9723,33.9829 13.2135,34.5618 13.643,34.9886 C14.0724,35.4154 14.6548,35.6552 15.2621,35.6552 C15.8694,35.6552 16.4518,35.4154 16.8812,34.9886 C17.3106,34.5618 17.5518,33.9829 17.5518,33.3793 L17.5518,18.2069 C17.5518,17.6033 17.3106,17.0244 16.8812,16.5976 C16.4518,16.1708 15.8694,15.931 15.2621,15.931 C14.6548,15.931 14.0724,16.1708 13.643,16.5976 C13.2135,17.0244 12.9723,17.6033 12.9723,18.2069 M24.4211,15.931 C25.0284,15.931 25.6108,16.1708 26.0403,16.5976 C26.4697,17.0244 26.7109,17.6033 26.7109,18.2069 L26.7109,33.3793 C26.7109,33.9829 26.4697,34.5618 26.0403,34.9886 C25.6108,35.4154 25.0284,35.6552 24.4211,35.6552 C23.8139,35.6552 23.2315,35.4154 22.802,34.9886 C22.3726,34.5618 22.1314,33.9829 22.1314,33.3793 L22.1314,18.2069 C22.1314,17.6033 22.3726,17.0244 22.802,16.5976 C23.2315,16.1708 23.8139,15.931 24.4211,15.931 "/>
</g>

<g fill="#000000" fill-opacity="1" stroke="#000000" stroke-opacity="1" stroke-width="1" stroke-linecap="square" stroke-linejoin="miter" stroke-miterlimit="2" transform="matrix(1,0,0,1,8,8)"
>
</g>

<g fill="#000000" fill-opacity="1" stroke="#000000" stroke-opacity="1" stroke-width="1" stroke-linecap="square" stroke-linejoin="miter" stroke-miterlimit="2" transform="matrix(1,0,0,1,8,8)"
>
</g>

<g fill="#000000" fill-opacity="1" stroke="#000000" stroke-opacity="1" stroke-width="1" stroke-linecap="square" stroke-linejoin="miter" stroke-miterlimit="2" transform="matrix(1,0,0,1,0,0)"
>
</g>

<g fill="#000000" fill-opacity="1" stroke="#000000" stroke-opacity="1" stroke-width="1" stroke-linecap="square" stroke-linejoin="miter" stroke-miterlimit="2" transform="matrix(1,0,0,1,0,0)"
>
</g>

<g fill="#000000" fill-opacity="1" stroke="#000000" stroke-opacity="1" stroke-width="1" stroke-linecap="square" stroke-linejoin="miter" stroke-miterlimit="2" transform="matrix(1,0,0,1,0,0)"
>
</g>

<g fill="#000000" fill-opacity="1" stroke="#000000" stroke-opacity="1" stroke-width="1" stroke-linecap="square" stroke-linejoin="miter" stroke-miterlimit="2" transform="matrix(1,0,0,1,0,0)"
>
</g>

<g fill="#000000" fill-opacity="1" stroke="#000000" stroke-opacity="1" stroke-width="1" stroke-linecap="square" stroke-linejoin="miter" stroke-miterlimit="2" transform="matrix(1,0,0,1,8,8)"
>
</g>

<g fill="#000000" fill-opacity="1" stroke="#000000" stroke-opacity="1" stroke-width="1" stroke-linecap="square" stroke-linejoin="miter" stroke-miterlimit="2" transform="matrix(1,0,0,1,0,0)"
>
</g>

<g fill="#000000" fill-opacity="1" stroke="#000000" stroke-opacity="1" stroke-width="1" stroke-linecap="square" stroke-linejoin="miter" stroke-miterlimit="2" transform="matrix(1,0,0,1,0,0)"
>
</g>

<g fill="#000000" fill-opacity="1" stroke="#000000" stroke-opacity="1" stroke-width="1" stroke-linecap="square" stroke-linejoin="miter" stroke-miterlimit="2" transform="matrix(1,0,0,1,0,0)"
>
</g>

<g fill="#000000" fill-opacity="1" stroke="#000000" stroke-opacity="1" stroke-width="1" stroke-linecap="square" stroke-linejoin="miter" stroke-miterlimit="2" transform="matrix(1,0,0,1,0,0)"
>
</g>

<g fill="#000000" fill-opacity="1" stroke="#000000" stroke-opacity="1" stroke-width="1" stroke-linecap="square" stroke-linejoin="miter" stroke-miterlimit="2" transform="matrix(1,0,0,1,0,0)"
>
</g>

<g fill="#000000" fill-opacity="1" stroke="#000000" stroke-opacity="1" stroke-width="1" stroke-linecap="square" stroke-linejoin="miter" stroke-miterlimit="2" transform="matrix(1,0,0,1,0,0)"
>
</g>
</g>
</svg>
