<?xml version="1.0" encoding="UTF-8"?>
<svg xmlns="http://www.w3.org/2000/svg" viewBox="0 0 345.6 245.76">
  <defs>
    <style>
      .cls-1 {
        fill: #f6c6c5;
      }

      .cls-2 {
        fill: none;
        stroke: #dd9997;
        stroke-linecap: round;
        stroke-linejoin: round;
      }
    </style>
  </defs>
  <g id="Layer_4" data-name="Layer 4">
    <path class="cls-1" d="M334.78,152.62c-1.33-3.37-5.3-5.41-8.47-6.65-.36-.14-.69-.19-1-.2-1.19-1.91-2.92-3.31-4.9-4.23-3.59-2.49-7.94-3.87-11.74-1.95-.51.05-1.03.11-1.53.21-1.55.3-2.79.95-4.07,1.62-1.26.2-2.4.93-3.52,1.83-.42.33-.67.75-.8,1.19-.04.02-.08.04-.11.07-.14.09-.25.19-.37.29-2.41-3.42-5.85-5.65-10.12-6.29-2.45-.37-5.04-.18-7.48.14-3.04.39-5.85,1.91-8.83,2.26-.28.03-.53.1-.77.19-3.57-3.99-8.29-6.99-13.8-7.1-6.84-.15-11.7,1.63-17.58,4.75-.07.04-.13.09-.2.13-2.79-1.87-4.85-2.41-8.68-2.96-3.42-.49-6.72-.52-10.16-.05-4.06.56-9.93,2.12-12.61,5.75-3.9-3.17-7.51-5.54-12.94-5.83-5.05-.26-10.41,1.12-14.34,4.36-3.99-3.78-9.45-5.68-14.91-5.89-3.08-.12-6.89.32-9.86,1.2-1.57.47-3.5,1.28-4.88,2.12-1.06.65-1.94,1.77-3.01,2.34-.25.13-.45.28-.64.45-1.27-.7-2.58-1.49-3.93-1.66-.35-.16-.72-.3-1.12-.38-1.67-.35-3.45-.16-5.13.05-2.98.38-6.04,1.07-8.01,3.37-2.38-2.27-5.04-4.11-8.22-5.39-3.57-1.44-6.43-1.02-9.61.04-1.06.2-2.02.59-3.08,1.16,0,0,0,0,0,0l-.13.04c-.33.11-.6.26-.85.43-.18-.21-.39-.42-.65-.59-9.64-6.45-24.51-7.68-35.7-3.59-.89.17-1.7.51-2.56.97-3.74,1.27-7.01,3.44-9.79,6.46-.17.18-.3.37-.42.56-.07-.07-.12-.13-.19-.2-1.13-.95-2.23-1.81-3.33-2.56-.2-.72-.63-1.36-1.33-1.67-2.91-1.28-5.87-2.01-9.07-2.05-.34,0-.63.05-.91.13-.59.02-1.19.05-1.82.12-6.19.67-8.82,2.95-12.42,7.77-.38.51-.54,1.01-.56,1.49-4.4,0-8.94,3.26-9.85,7.59-.66,3.13-.05,6.15,2.05,8.58,1.72,2,3.73,2.83,6.13,3.04,0,.15,0,.3.03.44.32,2.08,2.12,3.78,3.98,4.98.52.74,1.09,1.44,1.84,1.99,2.1,1.53,5,2.56,7.49,3.23.32.08.61.1.9.1,3.01,1.06,6.31,1.06,9.56.55,1.31-.07,2.61-.23,3.91-.46.51-.09.93-.36,1.28-.72.16-.05.32-.09.48-.14.29-.09.54-.21.77-.35.26.17.54.32.88.42,2.61.76,5.28,1.71,7.97,2.14.17.03.34.04.51.06.4.26.88.45,1.46.5,4.21.35,8.3.26,12.28-1.29,3.62-1.41,6.01-3.24,8.96-5.66.11-.09.18-.18.27-.27,1.58,1.01,3.05,2.28,4.78,3.11,2.19,1.06,4.34,1.88,6.69,2.26.05,0,.08.02.13.03.03,0,.06,0,.1.01.27.04.54.07.81.1.09.04.17.08.27.11,8.65,2.73,18.01,1.92,25.43-3.61,1.47,1.68,3.63,2.5,6.27,2.66,3.22.2,6.77-.82,8.85-3.35,3.77,2.69,8.67,3.89,13.23,3.92,6.48,1.89,13.62-.17,19.28-4.15.47-.14.85-.39,1.15-.71.06-.03.12-.06.17-.09.37-.19.73-.54,1.01-.95.15,0,.29,0,.44,0,.08,0,.16-.02.24-.03.36.07.72.13,1.08.2.16.18.33.35.55.51,5.16,3.67,11.1,5.4,17.47,4.83.12-.01.22-.04.34-.06,5.95.23,12.06-2.29,16.09-6.83.18.19.37.38.62.54,2.18,1.45,4.07,2.37,6.73,2.76.1.01.2.02.29.03,2.87.99,6.16-.12,9.03,1.01.01.01.03.03.04.04.58.53,1.21.91,1.92,1.22,1.58.7,3.04,1.2,4.77,1.38.02,0,.04,0,.06,0,3.28,1.33,6.82,1.68,10.49,1.76.63.01,1.14-.14,1.56-.4,2.35-.24,4.72-.74,6.81-1.42.84-.27,1.39-.78,1.72-1.39.53-.24,1.05-.5,1.54-.81.92-.57,1.78-1.21,2.7-1.76.16-.09.32-.18.48-.27.23-.12.45-.25.68-.36.19-.09.36-.2.52-.34.99-.66,2.02-1.3,2.93-2.07.31-.26.57-.54.82-.85.93,1.96,2.7,3.42,4.76,4.5.29.76.92,1.42,1.93,1.72,1.24.37,2.41.62,3.6.73.15.05.31.1.49.12,3.9.57,7.67.46,11.4-.97.75-.29,1.44-.65,2.12-1.05.13-.02.25-.04.38-.08.92-.31,1.74-.78,2.45-1.41.44-.3.86-.61,1.27-.94.45.03.89.04,1.33,0,6.65,7.4,22.69,6.08,27.75-2.73.07-.02.15-.04.22-.07,1.66-.58,3.01-1.94,4.76-2.18,1.02-.14,1.75-1.03,2.04-2.02.13-.1.26-.2.38-.32,0,0,0,.01.01.02.03-.04.07-.09.1-.13,1-.96,1.71-2.22,2.09-3.6.67-1.77.82-3.68.05-5.63Z"/>
  </g>
  <g id="Layer_3" data-name="Layer 3">
    <path class="cls-2" d="M28.47,144.77s1.67-7.83,13.25-9.5c11.58-1.67,16.08,6.83,16.08,6.83,0,0,7.08-10.25,25.33-10.25s23.83,6.08,23.83,6.08c0,0,6.17-4,12.67-2.08,6.5,1.92,9.25,5.58,9.25,5.58,0,0,3.92-3.25,9.17-3.5s9.33,2.33,9.33,2.33c0,0,6.5-6.17,16.17-6.25,9.67-.08,16.92,5.83,16.92,5.83,0,0,7.17-5.33,15.58-3.75,8.42,1.58,12.33,5.33,12.33,5.33,0,0,5.42-6.5,16.5-6.08,11.08.42,14.92,3.42,14.92,3.42,0,0,7.19-5.53,16.44-5.03s15.65,7.61,15.65,7.61c0,0,6.17-4,15.33-3.17,9.17.83,11.17,6.58,11.17,6.58,0,0,4.82-6.27,14.41-5.77s13.01,6.93,13.01,6.93c0,0,8.83,1.17,9.5,9.33.67,8.17-9.83,11.08-9.83,11.08,0,0-4.67,7.73-15.75,7.83-8.75.08-13.08-5-13.08-5,0,0-4.75,4.84-14.58,5s-14.75-7.58-14.75-7.58c0,0-6.22,6.83-15.89,9.33s-22.28-4.67-22.28-4.67c0,0-3.58.67-8.17-.08s-7.17-3.25-7.17-3.25c0,0-5.58,6.67-16.42,6.75s-19.08-6.25-19.08-6.25c0,0-6.25,7.25-16.33,7.33s-19.25-4.92-19.25-4.92c0,0-.75,2.67-6.33,3.25s-8.5-2.08-8.5-2.08c0,0-8.17,5.5-19.25,4.75s-18.83-7.17-18.83-7.17c0,0-4.33,5.25-13,7s-19.83-2.58-19.83-2.58c0,0-7.17,4.17-18,.42s-12.08-10.42-12.08-10.42c0,0-8.42-.25-8.58-9.17s10.17-10.08,10.17-10.08Z"/>
    <path class="cls-2" d="M33.99,146.66s-.63.17-.74,1.67,2.1,2.44,2.1,2.44c0,0-.88,1.73.68,2.95s2.56.63,2.56.63"/>
    <path class="cls-2" d="M41.66,165.41s1.22,2.33,4.72,2.39,5.39-2,5.39-2c0,0,2.28,2.5,5.33,2s4.57-2.48,4.57-2.48"/>
    <path class="cls-2" d="M72.72,164.41s2.22,1.39,4.89,0,3.02-3.67,3.02-3.67"/>
    <path class="cls-2" d="M79.05,139.77s.56-1.53,2.11-1.53,2.28,1.28,2.28,1.28c0,0,.44-1,2.22-1.28s2.61,1.53,2.61,1.53"/>
    <path class="cls-2" d="M97.67,164.11s.27,2.3,4,2.69,5.61-.83,5.61-.83c0,0,1.33,1.83,4.17,2s5.46-1.51,5.46-1.51"/>
    <path class="cls-2" d="M128.88,148.46s-.89.72-.89,2.28,1.86,1.93,1.86,1.93c0,0,.3,1.74,2.3,1.76s2.78-.75,2.78-.75"/>
    <path class="cls-2" d="M145.94,163.91s2.28,0,3.56-1.61,0-4.22,0-4.22"/>
    <path class="cls-2" d="M158.87,163.91s-.27,1.67,1.57,2.33,2.86.28,2.86.28c0,0,.86,1.5,2.86,1.5s2.78-.69,2.78-.69"/>
    <path class="cls-2" d="M180.35,148.14s-.69,1.07.25,2.24,2.14,1.32,2.14,1.32c0,0,.09,1.49,1.82,2.22s2.48.32,2.48.32"/>
    <path class="cls-2" d="M187.11,165.24s-.5,1,1,1.56,2.94,0,2.94,0"/>
    <path class="cls-2" d="M195.61,167.04s.22,1.64,4.17,1.09,3.17-2.89,3.17-2.89"/>
    <path class="cls-2" d="M216.15,161.55s.88,1.26,2.12,2.05c1.13.71,3.89.75,3.89.75,0,0,1,1.17,2.72,1.28s2.44-.33,2.44-.39"/>
    <path class="cls-2" d="M245.72,165.24s.61,1.89,2.17,2.33,3.89-.44,3.89-.44c0,0,1.72,1.45,3.89.56s2.72-2.45,2.72-2.45"/>
    <path class="cls-2" d="M261.94,141.91s1.94-.61,3.11.39.67,3.11.67,3.11"/>
    <path class="cls-2" d="M277.94,165.57s.94,1.5,3.33,1.39,3.67-.94,3.67-.94c0,0,1.33.89,3.33.59s2.78-1.86,2.78-1.86"/>
    <path class="cls-2" d="M298.27,152.96s-.5.44,0,1.78,2.22,1.06,2.22,1.06c0,0,.39,1.5,2,1.83s2.67-.83,2.67-.83"/>
    <path class="cls-2" d="M305.16,167.3s1.06,1.61,3.83,1.22,3.17-1.91,3.17-1.91"/>
    <path class="cls-2" d="M326.77,152.63s2.17.22,2.5,1.67-1.67,2.5-1.67,2.5"/>
  </g>
</svg>