<svg viewBox="0 0 807.9 479.48" xmlns="http://www.w3.org/2000/svg" id="Layer_2"><defs><style>.cls-1{fill:#6d6e71;}.cls-1,.cls-2,.cls-3,.cls-4,.cls-5,.cls-6{stroke-width:0px;}.cls-2{fill:#bfe47a;}.cls-3{fill:#cea4cc;}.cls-4{fill:#b6def6;}.cls-5{fill:#fff;}.cls-6{fill:#ffb6ab;}</style></defs><g id="Layer_2-2"><path d="M799.97,377.34v.02c.27-.34.52-.69.76-1.06,8.15-12.69,9.46-29.22,3.39-43.19-9.11-20.69-33.56-32.94-63.81-31.96h-.17c-5.7.24-17.55.75-30.06,6.66-11,5.2-19.81,13.4-26,24.13-8.95-7.47-19.95-12.68-32.74-15.41-11.19-2.5-21.79-2.73-31.6-.72-5.34-2.86-11.08-4.7-16.81-5.41,0-1.36.01-2.72,0-4.08l-.02-5.09c-.18-42.07-.45-105.66-30.08-179.14-11.92-29.53-28.68-53.74-49.82-71.98-18.95-16.35-41.42-27.93-66.82-34.42C433.19,5.8,407.41.54,379.54.05c-1.94-.04-3.87-.05-5.77-.05-58.41,0-103.13,16.32-136.69,49.9-31.29,31.29-45.91,71.85-55.15,103.69-9.25,31.88-14.43,76.16-14.13,118.84-.97-.12-1.96-.22-2.96-.28h.01c-.83-.12-1.69-.16-2.54-.13-.84-.03-1.71.01-2.54.13-11.06.69-21.27,5.08-29.26,12.42-7.7-.98-15.5,0-22.55,2.77-8.29-3.38-17.62-4.27-26.7-2.41h-.05c-8.44-8.23-19.78-12.93-31.32-12.93-28.46,0-45.9,22.29-48.42,44.33-1.56,13.7-1.78,92.9-1.14,108.07.65,17.6,6.45,31.93,16.76,41.5.16.16.33.32.51.48,8.22,7.37,18.55,11.26,29.88,11.26,1.23,0,2.33-.03,3.37-.11,10.3-.62,19.07-3.6,25.99-8.69,7.1,5.97,16.12,9.56,26.66,10.47.05,0,.1,0,.16.01,1.37.1,2.73.16,4.06.16,10.51,0,20.11-3.23,27.93-9.19,7.25,4.83,15.72,7.35,24.85,7.35.6,0,1.2-.02,1.8-.04.6.02,1.2.04,1.8.04,11.33,0,21.66-3.89,29.88-11.26.17-.16.34-.31.51-.47,8.65-8.01,14.1-19.39,16.03-33.18,3.94,20.09,15.73,29.86,25.48,34.57,12.04,5.82,24.77,6.03,33.15,6.17l2.75.05c2.11.07,4.08.1,6.01.1,15.59,0,29.42-2.04,41.31-5.98,19.03,1.7,39.03,2.22,59.39,2.44,2.88.81,5.86,1.49,8.93,2.03,6.6,1.16,13.01,1.75,19.03,1.75,9.42,0,17.32-1.44,23.96-3.66h20.15s-1.02-.97-1.02-.97c7.92-.37,15.2-.84,21.97-1.43,6.82,2.52,14.12,4.15,21.73,4.77,9.43.78,18.74,0,27.76-2.34,6.06,3.3,12.79,5.02,19.82,5.02,10.92,0,20.95-3.31,28.92-9.21,7.49,6.19,16.91,9.53,27.56,9.53,1.08,0,2.21-.04,3.46-.12,13.32-.79,24.48-6.14,32.11-14.66,8.64,9.97,21.68,15.5,36.87,14.64.13,0,.27-.02.4-.03l.39-.03c7.36-.59,14.36-3.01,20.42-6.96,11.34,7.16,25.72,10.86,42.93,11.02h.91c.4,0,.8.01,1.2.01,42.65,0,58.75-25.53,64.74-46.95,0-.03.02-.07.03-.1,4.63-17.02,2.5-33.64-6.11-48.83,1.9-1.89,3.62-3.97,5.17-6.21Z" class="cls-5"></path><path d="M208.5,308.19c.96-11.98,6.09-22.74,14.77-30.76,9.97-9.2,24.12-13.8,37.86-12.31,1.13.13,2.2.3,3.28.54,24.9,4.46,39.77,28,39.77,48.32v1.98c15.88,2.82,29.03,8.82,39.28,17.91,11.27-12.94,26.4-21.15,43.07-22.87,34.65-3.8,55.32,9.81,67.1,23.5,5.13-4.16,10.9-7.81,17.29-10.91,17.84-8.7,38.96-10.23,59.43-4.29,10.34,2.99,19.85,7.72,27.85,13.72,5.56-9.7,14.17-16.92,24.72-20.51.03-2.01.04-4.03.02-6.08-.23-42.06.71-104.04-28.65-176.86-22.49-55.74-60.88-84.16-104.56-94.89-24.01-10.6-48.81-14.25-70.55-14.63-55.54-1.01-97.37,13.39-127.96,43.99-28.07,28.07-41.51,65.58-50.08,95.12-9.29,31.99-14.22,77.49-13.23,120.54,10.35,6.8,17.4,17.35,20.59,28.49Z" class="cls-1"></path><path d="M261.13,265.12c1.13.13,2.2.3,3.28.54,24.9,4.46,39.77,28,39.77,48.32v1.98c15.88,2.82,29.03,8.82,39.28,17.91,11.27-12.94,26.4-21.15,43.07-22.87,34.65-3.8,55.32,9.81,67.1,23.5,5.13-4.16,10.9-7.81,17.29-10.91,17.84-8.7,38.96-10.23,59.43-4.29,10.34,2.99,19.85,7.72,27.85,13.72,5.56-9.7,14.17-16.92,24.72-20.51.03-2.01.04-4.03.02-6.08-.23-42.06.71-104.04-28.65-176.86-29.38-72.8-85.88-99.01-145.85-100.04-116.57-2.09-150.15,67.94-168.81,132.28-8.44,29.08-13.47,71.09-12.94,112.78,9.65-7.28,22.2-10.8,34.44-9.47Z" class="cls-4"></path><path d="M466.51,138.43c-.38,8.76-7.82,15.54-16.53,15.1-8.71-.43-15.54-7.77-15.15-16.53.38-8.76,7.82-15.54,16.53-15.1s15.54,7.82,15.1,16.53" class="cls-1"></path><path d="M466.51,138.43c-.38,8.76-7.82,15.54-16.53,15.1-8.71-.43-15.54-7.77-15.15-16.53.38-8.76,7.82-15.54,16.53-15.1s15.54,7.82,15.1,16.53" class="cls-1"></path><path d="M323.69,140.75c-.38,8.76-7.82,15.54-16.53,15.1s-15.54-7.82-15.1-16.53c.43-8.71,7.82-15.54,16.53-15.1,8.71.43,15.54,7.82,15.1,16.53" class="cls-1"></path><path d="M323.69,140.75c-.38,8.76-7.82,15.54-16.53,15.1s-15.54-7.82-15.1-16.53c.43-8.71,7.82-15.54,16.53-15.1,8.71.43,15.54,7.82,15.1,16.53" class="cls-1"></path><path d="M381.52,179.84c-11.79,0-19.96-3.8-26.44-12.27-1.91-2.49-1.43-6.06,1.06-7.97s6.06-1.43,7.97,1.06c4.42,5.78,9.23,7.89,17.84,7.81,7.58-.1,13.1-2.43,16.4-6.95,1.85-2.54,5.41-3.09,7.94-1.24,2.54,1.85,3.09,5.41,1.24,7.94-5.44,7.45-14.24,11.47-25.45,11.61h-.56,0Z" class="cls-1"></path><path d="M381.52,179.84c-11.79,0-19.96-3.8-26.44-12.27-1.91-2.49-1.43-6.06,1.06-7.97s6.06-1.43,7.97,1.06c4.42,5.78,9.23,7.89,17.84,7.81,7.58-.1,13.1-2.43,16.4-6.95,1.85-2.54,5.41-3.09,7.94-1.24,2.54,1.85,3.09,5.41,1.24,7.94-5.44,7.45-14.24,11.47-25.45,11.61h-.56,0Z" class="cls-1"></path><path d="M187.91,279.7c.63.41,1.24.84,1.84,1.28.04.03.07.05.11.08,2.44,1.78,4.67,3.78,6.7,5.95.05.05.1.11.15.16.46.49.9.99,1.34,1.5.04.05.09.1.13.15.96,1.13,1.86,2.29,2.71,3.49,0,0,0,.01.01.02.4.56.78,1.13,1.15,1.7.08.12.15.24.23.36.3.47.6.95.88,1.44.08.14.17.28.25.43.29.51.58,1.02.86,1.53.05.1.11.2.16.3.33.62.65,1.25.95,1.89.02.05.05.1.07.15.27.56.52,1.13.76,1.69.08.19.16.38.24.57.18.44.36.88.53,1.32.08.22.17.43.25.65.16.44.32.89.47,1.33.07.2.14.39.2.59.21.64.41,1.27.59,1.91.01-.18.04-.36.06-.54-4.59-50.07.29-107.02,10.78-143.2,18.94-65.28,50.85-125.49,154.57-125.49h0c1.62-.01,3.27,0,4.93.03,30.57.54,57.33,7.84,79.55,21.7,25.26,15.76,44.66,40.13,57.67,72.43,27.5,68.27,27.75,126.13,27.94,168.38l.02,5c.03,6.07-.11,11.99-.41,17.81,1.3.61,2.57,1.24,3.82,1.91.02.01.05.03.07.04,1.17.62,2.32,1.27,3.45,1.94.11.07.23.13.34.2,1.03.62,2.03,1.25,3.02,1.91.18.12.38.24.56.36,1.13.76,2.24,1.54,3.32,2.35.39-.68.81-1.35,1.23-2.01.19-.29.38-.58.57-.86.2-.3.41-.59.62-.89.58-.83,1.19-1.63,1.82-2.41.39-6.72.57-13.53.53-20.47l-.02-4.97c-.18-41.31-.45-103.74-29.31-175.37-34.64-85.97-103.11-105.09-154.46-105.99-55.54-1.01-97.37,13.39-127.96,43.99-28.07,28.07-41.51,65.58-50.08,95.12-9.29,31.99-14.22,77.49-13.23,120.54,0,0,0,0,0,0Z" class="cls-1"></path><path d="M788.1,368.2c5.48-8.54,6.36-19.67,2.29-29.05-6.49-14.75-25.88-23.78-49.6-23.01-9.61.41-38.86,1.65-48.96,35.65-1.28,4.32-1.93,8.63-1.99,12.93-7.52-17.98-21.51-29.24-41.72-33.53-11.32-2.53-21.69-2.27-30.85.79-5.72-4.26-12.61-6.76-18.95-6.91-.88-.08-1.76-.08-2.61,0-16.25,1.31-27.74,13.59-29.27,31.24-.21,2.1-.36,5.18-.45,9.06-1.09-2.2-2.29-4.32-3.58-6.36-7.26-11.5-20.45-20.74-36.24-25.3-16.89-4.9-34.19-3.7-48.7,3.38-11.13,5.4-19.89,12.67-26.1,21.62-.6-1.41-1.26-2.78-1.99-4.11-8.33-15.24-25.73-32.58-61.31-28.67-18.73,1.93-34.49,14.19-43.1,33.2-1.76-2.89-3.73-5.65-5.89-8.26-10.7-12.95-27.4-20.19-49.67-21.54-.15-7.43-.23-12.57-.23-15.33,0-13.89-10.66-30.72-27.72-33.61-.64-.15-1.28-.26-1.95-.34-9.5-1.03-19.23,2.12-26.07,8.43-6.81,6.29-10.4,15.18-10.1,25.01.13,4.17.08,15.95,0,28.47-.15,28.35-.34,67.18,1.07,82.01,2.95,33.82,30.34,34.28,45.04,34.53l2.83.06c1.76.06,3.64.09,5.63.09,21.82,0,50.93-4.43,65.68-25.46,1.28-1.8,2.46-3.68,3.55-5.61,8.43,16.04,23.19,26.31,43.01,29.78,5.78,1.01,11.3,1.52,16.44,1.52,27.83,0,38.21-14.97,40.7-19.53,1.07-1.91,1.93-3.92,2.55-5.99,9.68,13.83,25.88,22.72,44.79,24.28,9.93.83,19.67-.47,28.94-3.83,5.01,4.24,10.98,6.46,17.4,6.46,13.83,0,24.73-7.13,29.56-18.35,4.17,10.1,12.7,18.67,26.93,18.67.84,0,1.69-.04,2.53-.09,16.95-.99,28.32-12.12,29.01-28.41v-.21c.19-7,.45-22.57.23-36.54-.04-1.58.11-2.53.23-3.04.66-.19,1.97-.45,4.07-.45.86,0,1.54.04,2.05.08.04.26.08.56.11.92.47,4.95.56,11.62.66,18.65.09,7.11.21,14.49.73,21.2,1.58,17.56,14.41,28.77,31.98,27.77l.45-.04c8.46-.68,16.08-5.01,21.05-11.8,9.65,10.45,23.98,15.63,43.63,15.82.66,0,1.31.02,1.97.02,27.08,0,43.52-11.77,50.29-35.99,4.77-17.53.41-33.95-12.95-48.87,6.04-2.1,11.15-6.08,14.62-11.5l-.02.09h0ZM695.67,388.16c1.93,3.66,4.35,7.22,7.24,10.64-2.18.79-4.22,1.84-6.16,3.13-.23-5.03-.6-9.63-1.09-13.77h.01ZM510.36,394.75c-1.05,2.16-3.36,3.55-5.89,3.55-.88,0-2.03-.13-2.55-.79h0c-.28-.34-.41-.86-.36-1.16.75-3.15,1.99-5.01,2.46-5.29.08-.04.28-.08.62-.08.51,0,1.31.08,2.48.39.26.08.53.13.79.19,1.65.56,2.42,1.2,2.61,1.6.17.39.11,1.07-.15,1.6h-.01ZM286.26,391.92c2.74.26,2.98.75,3.27,1.29.36.66.43,1.56.19,2.35h0c-.21.66-.47.81-.58.86-.28.15-.56.32-.84.49-.54.21-1.2.38-1.93.51-.06-1.9-.09-3.73-.11-5.48l.02-.02h-.02Z" class="cls-1"></path><path d="M257.75,295.99c8.73.96,15.48,10.11,15.48,18.05s.58,30.96.58,30.96c3.15.81,36.74-3.58,52.96,16.06,16.06,19.44,16.06,45.64,3.81,62.94-12.1,17.25-41.28,19.23-57.72,18.63-16.49-.38-30.74.81-32.56-20.02-1.99-21.05-.58-96.08-1.01-109.59-.38-12.31,9.74-18.05,18.48-17.08M296.65,410.51c8.95-4.77,11.52-16.29,6.96-24.79-5.14-9.91-15.26-9.91-22.59-9.91s-10.72,3.15-10.72,10.72c0,5.95,0,12.31.58,19.87.38,8.52,17.25,8.95,25.8,4.18" class="cls-3"></path><path d="M389.75,341.85c23.23-2.57,37.49,5.57,45.62,20.45,7.92,14.67,4.18,29.56-8.52,37.7-10.34,6.53-35.94,4.77-35.94,4.77,1.99.96,3.75,12.69,28,7.13,9.53-2.2,20.62,8.73,14.45,19.65-3.58,6.53-15.48,14.51-40.48,10.11-20.45-3.58-38.28-16.29-38.28-53.99,0-18.86,11.9-43.5,35.13-45.84M394.29,367.22c-5.57,5.14-8.35,10.72-4.56,13.72,5.57,3.96,23.98.96,21.84-6.76-1.61-6.53-9.74-9.91-17.25-6.96" class="cls-4"></path><path d="M495.94,441.78c-19.65-1.61-38.88-13.87-39.9-39.11-.81-17.83,3-38.88,28.37-51.21,23.61-11.52,54.34,0,64.48,16.06,14.67,23.03,8.52,51.62,8.35,61.33-.21,10.49-7.34,15.48-16.29,15.48s-12.48-10.72-12.48-10.72c0,0-13.12,9.74-32.56,8.14M511.18,375.93c-15.69-4.18-22.82,6.53-25.22,16.87-2.2,10.11,4.97,21.43,18.48,21.43,8.95,0,16.64-5.14,20.25-12.54,4.18-8.35,1.99-21.64-13.49-25.82" class="cls-6"></path><path d="M597,341.04c7.13-.38,15.69,6.16,16.29,11.3,0,0,9.33-10.49,31.38-5.57,20.62,4.39,31.38,17.68,34.7,39.9,2.4,15.69,1.76,37.93,1.18,44.66-.58,6.76-4.97,12.69-12.31,13.29-7.13.38-14.3-2.57-15.26-13.29-.96-12.31-.38-28.97-1.39-39.9-1.18-12.1-7.54-15.48-18.05-15.48s-20.62,3.96-20.25,19.82c.21,12.91,0,27.79-.21,35.73-.38,8.95-6.38,12.69-14.09,13.12-7.92.58-13.49-3.58-15.26-14.3-1.61-10.49-2.57-60.14-1.39-72.47.96-11.09,7.34-16.29,14.67-16.87" class="cls-2"></path><path d="M741.47,332.09c17.45-.58,30.74,5.35,34.32,13.49,3.38,7.77-.38,19.65-12.31,19.87-10.34,0-19.07-7.34-25.22,0-5.95,7.13,7.13,10.49,13.72,15.86,9.74,8.14,24.79,22.01,19.07,43.07-4.97,17.83-15.86,24.64-36.52,24.21-21.64-.21-29.78-7.13-34.12-12.91-4.39-5.57-.21-25.82,16.29-22.22,11.09,2.4,23.4,6.53,25.6.81,3.38-8.52-13.72-12.69-21.84-20.25-10.49-9.53-17.83-22.22-13.29-37.7,5.95-20.02,20.45-23.63,34.32-24.21" class="cls-4"></path><path d="M195.24,318.02c-1.73-15.12-13.38-30.36-32.38-30.96v-.05c-.18,0-.35.02-.53.03-.18,0-.35-.03-.53-.03v.05c-11.63.37-20.48,6.22-26.02,14.17-1.56-.6-3.18-1.08-4.85-1.41-8.09-1.63-16.55,0-23.06,4.41-6.66-4.64-15.22-6.32-23.55-4.62-2.91.6-5.67,1.58-8.26,2.93-1.33-2.33-2.91-4.43-4.71-6.29-5.7-5.87-13.51-9.25-21.43-9.25-19.68,0-31.75,15.59-33.52,31.02-1.44,12.72-1.67,91.14-1.05,105.82.36,9.59,2.78,22.82,12.35,31.39l-.06-.04c5.42,4.86,12.29,7.43,19.87,7.43.81,0,1.61-.02,2.4-.08,17.21-1.01,24.3-9.91,27.34-19.16,3.43,9.68,10.77,19.52,27.57,20.96.99.08,1.97.11,2.93.11,11.92,0,21.52-5.79,27.33-15.97,1.53,2.43,3.37,4.72,5.63,6.74l-.06-.04c5.42,4.86,12.29,7.43,19.87,7.43.6,0,1.2-.03,1.8-.06.6.03,1.19.06,1.8.06,7.58,0,14.45-2.57,19.87-7.43l-.06.04c9.57-8.58,11.99-21.81,12.35-31.39.62-14.67.39-93.1-1.05-105.82h.01Z" class="cls-1"></path><path d="M48.9,446.62c-13.12.96-17.25-11.73-17.68-23.4-.58-14.09-.38-91.69.96-103.42,1.33-11.73,10.11-16.87,17.68-16.87s15.26,6.53,14.88,18.63c-.38,12.31-.58,93.88-.96,104.02-.58,12.31-.81,20.25-14.88,21.05" class="cls-2"></path><path d="M89.77,380.53c.96-15.69,10.72-20.83,18.84-21.2,9.74,0,16.64,7.92,16.64,24.79s1.01,37.49-.96,48.04c-2.2,10.49-7.77,17.08-18.26,16.29-13.72-1.18-14.88-11.73-16.06-22.22-1.01-10.49-1.39-29.78-.21-45.64" class="cls-6"></path><path d="M78.45,321.13c3.7-6.21,13.92-8.46,20.45-3.7s11.56,4.88,17.19.43,16.29-3.7,20.34,3.7c5.03,9.21.43,29.84-27.47,30.16-27.9.32-38.39-17.41-30.57-30.59" class="cls-4"></path><path d="M163.72,446.62c-13.12.96-17.25-11.73-17.68-23.4-.58-14.09-.38-91.69.96-103.42,1.33-11.73,10.11-16.87,17.68-16.87s15.26,6.53,14.88,18.63c-.38,12.31-.58,93.88-.96,104.02-.58,12.31-.81,20.25-14.88,21.05" class="cls-2"></path></g></svg>